<?xml version="1.0" encoding="UTF-8"?>
<svg width="461px" height="745px" viewBox="0 0 461 745" version="1.1" xmlns="http://www.w3.org/2000/svg" xmlns:xlink="http://www.w3.org/1999/xlink">
    <title>Combined Shape Copy</title>
    <g id="Logo-Incentive.me" stroke="none" stroke-width="1" fill="none" fill-rule="evenodd">
        <g id="incentiveme-vertical" transform="translate(-90.000000, -90.000000)" fill="#000000">
            <path d="M493.542978,683.890671 C503.120249,686.982343 512.071025,692.170927 520.387474,699.468265 C528.706255,706.756936 537.351646,717.272536 546.347656,731.012186 L445.612557,789.171623 C451.4727,795.676005 458.772385,800.291306 467.512031,803.024604 C479.568036,806.376454 491.356539,804.7174 502.888216,798.059583 C504.939881,796.875054 507.262848,795.061649 509.862619,792.616192 C512.448639,790.178674 514.96728,787.516482 517.413044,784.63279 C519.857223,781.746353 522.217729,778.911884 524.509481,776.117112 C526.794146,773.322769 528.65963,770.990088 530.099172,769.101006 L551.004558,788.898273 C546.052122,794.909485 541.747008,799.869724 538.09546,803.764402 C534.443492,807.652001 530.592382,811.563054 526.53854,815.484994 C522.478778,819.403029 518.790513,822.319515 515.470996,824.236039 C496.667735,835.092108 477.33581,837.734789 457.477974,832.162495 C437.782821,826.503598 422.458193,814.206673 411.530103,795.278665 C400.421304,776.037661 397.303362,756.594361 402.187696,736.949494 C407.228794,717.214119 419.071007,701.960905 437.714756,691.196932 C456.198992,680.525053 474.813931,678.09498 493.542978,683.890671 Z M140.002301,798.133107 L140.002301,833.139688 L109.000874,833.139688 L109.000874,798.133107 L140.002301,798.133107 Z M328.068,683.111487 C334.418067,683.111487 340.221857,684.019924 345.488844,685.836798 C350.746358,687.653671 355.463911,690.565734 359.635188,694.566655 C367.794597,702.571662 371.87746,712.931641 371.87746,725.662419 L371.87746,803.401831 L392.013897,803.401831 L392.013897,833.139688 L340.313429,833.139688 L340.313429,727.298872 C340.313429,722.386349 339.315607,718.844394 337.323119,716.660348 C335.324317,714.479466 332.056132,713.384277 327.521724,713.384277 C320.99167,713.384277 314.373202,715.207481 307.660004,718.844394 C301.303622,721.933713 295.23143,726.304972 289.433955,731.936015 L289.433955,833.139688 L257.857294,833.139688 L257.857294,727.298872 C257.857294,724.209553 257.585735,721.84192 257.042616,720.208633 C256.499498,718.57218 255.77955,717.3029 254.866984,716.388133 C253.957576,715.660117 252.773452,714.979581 251.327241,714.343359 C249.874714,713.707136 247.695924,713.384277 244.800345,713.384277 C242.075279,713.384277 239.088127,713.843243 235.816785,714.75168 C232.551758,715.660117 228.920442,717.119314 224.932309,719.116609 C221.484138,720.753062 218.266476,722.569935 215.269851,724.573561 C212.282699,726.570856 209.513426,728.666275 206.971505,730.843992 L206.971505,803.401831 L228.203652,803.401831 L228.203652,833.139688 L175.404316,833.139688 L175.404316,716.388133 L152.002853,716.388133 L152.002853,686.653441 L206.971505,686.653441 L206.971505,695.111084 C212.778453,691.474171 218.948532,688.562108 225.478586,686.381227 C232.008639,684.19718 238.810252,683.111487 245.886582,683.111487 C253.322886,683.111487 260.171863,684.469394 266.433515,687.204201 C272.688852,689.929512 277.899001,694.478027 282.082908,700.840251 C286.614159,697.383759 291.698002,694.199482 297.31549,691.290584 C302.582477,688.74886 307.798941,686.751565 312.964883,685.292369 C318.13714,683.833172 323.17046,683.111487 328.068,683.111487 Z M451.52176,717.296234 C440.927908,723.412597 434.42748,732.217483 432.007469,743.707418 C430.73599,749.914357 430.78734,756.195877 432.144597,762.554425 L500.878123,722.871105 C495.179846,717.75222 488.724043,714.223834 481.495798,712.298222 C471.784545,709.704893 461.791086,711.367236 451.52176,717.296234 Z M145.51734,488.074826 L145.51734,517.711048 L173.003819,517.711048 L173.003,517.722 L223.729444,517.722698 L223.729444,634.393089 L246.007178,634.393089 L246.007178,664.107915 L192.372759,664.107915 L191.833447,651.841139 L191.833447,547.437524 L173.003,547.437 L173.003819,547.627519 L145.51734,547.627519 L145.51734,632.157311 C145.51734,635.087176 145.794363,636.915157 146.35163,637.644439 L147.736745,637.644439 L173.003819,633.533074 L173.003819,663.717054 L146.625432,668.108667 C141.445747,668.108667 136.771789,667.42397 132.60678,666.051392 C128.448214,664.675629 124.788934,662.341291 121.648266,659.051562 C118.491493,655.943357 116.323627,652.328796 115.115678,648.211061 C113.914171,644.093327 113.315028,639.663498 113.315028,634.899283 L113.315028,547.627519 L90,547.627519 L90,517.711048 L113.315028,517.711048 L113.315028,488.896462 L145.51734,488.074826 Z M493.542978,516.859274 C503.120249,519.950946 512.071025,525.13953 520.387474,532.436868 C528.706255,539.725539 537.351646,550.241139 546.347656,563.980789 L445.612557,622.140226 C451.4727,628.644609 458.772385,633.259909 467.512031,635.993207 C479.568036,639.345057 491.356539,637.686003 502.888216,631.028186 C504.939881,629.843657 507.262848,628.030252 509.862619,625.584795 C512.448639,623.147277 514.96728,620.485085 517.413044,617.601393 C519.857223,614.714956 522.217729,611.880488 524.509481,609.085715 C526.794146,606.291373 528.65963,603.958691 530.099172,602.069609 L551.004558,621.866876 C546.052122,627.878089 541.747008,632.838328 538.09546,636.733005 C534.443492,640.620604 530.592382,644.531658 526.53854,648.453597 C522.478778,652.371633 518.790513,655.288119 515.470996,657.204643 C496.667735,668.060711 477.33581,670.703392 457.477974,665.131099 C437.782821,659.472202 422.458193,647.175276 411.530103,628.247268 C400.421304,609.006264 397.303362,589.562965 402.187696,569.918097 C407.228794,550.182722 419.071007,534.929508 437.714756,524.165535 C456.198992,513.493656 474.813931,511.063584 493.542978,516.859274 Z M311.402718,517.080278 L311.402718,546.941827 L297.396291,546.941827 L322.385464,614.055612 L351.487989,535.161233 L358.354197,517.080278 L402.014357,517.080278 L402.014357,546.941827 L379.223645,546.941827 L335.295846,666.108291 L310.02629,666.108291 L264.177228,546.941827 L240.006902,546.941827 L240.006902,517.080278 L311.402718,517.080278 Z M451.52176,550.264837 C440.927908,556.3812 434.42748,565.186086 432.007469,576.676021 C430.73599,582.88296 430.78734,589.16448 432.144597,595.523028 L500.878123,555.839708 C495.179846,550.720823 488.724043,547.192438 481.495798,545.266825 C471.784545,542.673496 461.791086,544.335839 451.52176,550.264837 Z M203.810003,472.071818 C208.935062,472.071818 213.616546,473.982373 217.832115,477.793994 C221.683888,481.975705 223.608178,486.609751 223.608178,491.702456 C223.608178,497.336063 221.683888,502.055513 217.832115,505.873461 C213.616546,509.691408 208.935062,511.601963 203.810003,511.601963 C198.672178,511.601963 193.993886,509.691408 189.781508,505.873461 C185.936118,501.691749 184.005444,497.057704 184.005444,491.971325 C184.005444,486.337718 185.936118,481.611941 189.781508,477.793994 C193.993886,473.982373 198.672178,472.071818 203.810003,472.071818 Z M343.354139,314.641783 C352.92866,317.735042 361.876685,322.925214 370.19155,330.219806 C378.511915,337.511223 387.160057,348.025235 396.151731,361.763728 L295.419383,419.921577 C301.282276,426.424372 308.57921,431.04126 317.324357,433.771382 C329.377611,437.12482 341.163784,435.474433 352.700962,428.81344 C354.752627,427.628911 357.072844,425.817094 359.669445,423.366146 C362.258214,420.92704 364.779606,418.26326 367.22537,415.379568 C369.669549,412.493131 372.024555,409.661838 374.316306,406.867066 C376.601392,404.079802 378.463706,401.74163 379.911498,399.847784 L400.816884,419.645051 C395.858948,425.659439 391.559334,430.616503 387.905036,434.512768 C384.253068,438.400367 380.399208,442.313008 376.348116,446.23336 C372.288774,450.158475 368.60601,453.071785 365.280992,454.991485 C346.480481,465.845965 327.139886,468.486331 307.28797,462.917941 C287.589647,457.253552 272.272104,444.956197 261.344014,426.028189 C250.23363,406.784439 247.110187,387.344315 251.997272,367.69786 C257.038369,347.962485 268.882168,332.712017 287.523166,321.949631 C306.012903,311.274577 324.619172,308.842189 343.354139,314.641783 Z M180.608203,310.041361 C187.398884,310.041361 193.914742,310.950862 200.162168,312.769865 C206.396812,314.588867 212.18407,317.599412 217.511159,321.782484 L242.852382,321.782484 L242.852382,380.22824 L213.657248,380.22824 C213.283361,369.849785 212.18407,362.43117 210.352983,357.966057 C208.512309,353.510452 206.224249,350.278078 203.463238,348.272105 C196.857903,342.992561 189.239558,340.352789 180.608203,340.352789 C169.040079,340.352789 159.680124,344.450298 152.515556,352.642147 C144.989884,361.2016 141.222255,372.673358 141.222255,387.054253 C141.222255,394.701035 142.232069,401.305219 144.258089,406.857296 C146.26813,412.412543 149.118618,417.280118 152.79677,421.466359 C160.137097,429.658208 170.046697,433.755717 182.538354,433.755717 C187.309407,433.755717 191.482879,433.166284 195.065163,431.977912 C198.650642,430.795877 201.903778,429.113141 204.843743,426.929704 C207.780513,424.562466 210.579871,421.513894 213.241818,417.77765 C215.900569,414.047744 218.981142,408.178767 222.470753,400.164381 L250.007362,411.905504 C245.78276,422.832195 241.417551,431.296578 236.930908,437.301822 C232.431483,443.310234 227.241805,448.326752 221.36507,452.322853 C209.979096,460.153437 196.944184,464.070314 182.260336,464.070314 C160.59407,464.070314 142.96706,456.784797 129.379308,442.223269 C115.794751,427.658573 109.000874,409.268901 109.000874,387.054253 C109.000874,365.39101 115.698882,347.27704 129.110876,332.706006 C142.877583,317.599412 160.041228,310.041361 180.608203,310.041361 Z M484.584969,312.041737 C490.749121,312.041737 496.429872,312.950174 501.608265,314.767048 C506.77402,316.583922 511.450056,319.587778 515.623733,323.76912 C523.604588,331.587375 527.607653,341.861891 527.607653,354.59267 L527.607653,432.338411 L548.021075,432.338411 L548.021075,462.069938 L496.01598,462.069938 L496.01598,356.229122 C496.01598,351.319764 494.970191,347.774645 492.888091,345.590598 C490.802832,343.409716 487.39375,342.317693 482.673482,342.317693 C479.589826,342.317693 476.367153,342.776659 473.014941,343.681931 C469.650091,344.593533 465.975612,346.049564 461.985185,348.046859 C458.535029,349.683312 455.312356,351.500186 452.314007,353.503811 C449.325135,355.504272 446.551109,357.596526 444.007725,359.777407 L444.007725,432.338411 L464.977216,432.338411 L464.977216,462.069938 L412.431849,462.069938 L412.431849,345.318383 L389.013758,345.318383 L389.013758,315.583691 L444.007725,315.583691 L444.007725,324.313549 C450.184515,320.679801 456.626701,317.723424 463.340603,315.447584 C470.057665,313.178075 477.138067,312.041737 484.584969,312.041737 Z M301.332921,348.047346 C290.74182,354.162121 284.237056,362.965849 281.814295,374.457372 C280.545566,380.662723 280.599666,386.942655 281.950257,393.308712 L350.683783,353.625393 C344.991007,348.503332 338.530869,344.973788 331.308124,343.045 C321.591371,340.454847 311.599497,342.119936 301.332921,348.047346 Z M144.730846,149.589126 L144.730846,267.110532 L167.003543,267.110532 L167.003543,297.038917 L113.37995,297.038917 L112.83111,284.685851 L112.83111,179.517511 L90,179.517511 L90,149.589126 L144.730846,149.589126 Z M257.571986,147.010716 C263.742089,147.010716 269.413024,147.925484 274.591108,149.739192 C279.759715,151.559231 284.432312,154.556757 288.612059,158.741264 C296.598757,166.562685 300.588947,176.837201 300.588947,189.567979 L300.588947,267.307391 L321.010629,267.307391 L321.010629,297.038917 L269.011793,297.038917 L269.011793,191.198101 C269.011793,186.291909 267.962907,182.746789 265.877773,180.565908 C263.792638,178.381861 260.386918,177.289837 255.670091,177.289837 C252.577141,177.289837 249.357819,177.745638 245.999489,178.65724 C242.637999,179.565677 238.96058,181.018543 234.97039,183.022169 C231.52044,184.652291 228.297959,186.475496 225.312425,188.472791 C222.314254,190.476416 219.543553,192.565505 217.006639,194.749552 L217.006639,267.307391 L237.974879,267.307391 L237.974879,297.038917 L185.423167,297.038917 L185.423167,180.290528 L162.003313,180.290528 L162.003313,150.559001 L217.006639,150.559001 L217.006639,159.285693 C223.170423,155.651946 229.618544,152.695569 236.338365,150.422894 C243.048707,148.147054 250.125528,147.010716 257.571986,147.010716 Z M124.927929,90 C130.062137,90 134.73366,91.9244911 138.95207,95.770287 C142.803524,99.9825009 144.730846,104.650348 144.730846,109.773827 C144.730846,115.448527 142.803524,120.205588 138.95207,124.048198 C134.73366,127.893994 130.062137,129.818485 124.927929,129.818485 C119.793721,129.818485 115.119008,127.893994 110.906979,124.048198 C107.052334,119.842357 105.128203,115.17451 105.128203,110.044658 C105.128203,104.373144 107.052334,99.6128967 110.906979,95.770287 C115.119008,91.9244911 119.793721,90 124.927929,90 Z" id="Combined-Shape-Copy"></path>
        </g>
    </g>
</svg>